#!OML:ASF E:\motion texture\Top Level 1\Subject 1\Session 1\male.ASF
:FULLY-SPECIFIED
:DEGREES
454
root 3.6551 17.9532 4.3094 651.483 -99.3972 -651.897
lowerback 3.4727 1.38241 7.14856
upperback -0.549074 2.14276 3.75123
thorax -2.39917 0.949751 -0.240775
lowerneck -18.7084 -3.84024 -5.91048
upperneck 12.9928 -4.33222 3.97769
head 7.26315 -2.00443 1.75597
rclavicle -4.01452e-015 -2.66371e-014
rhumerus 1.43851 19.8853 -86.2664
rradius 76.2823
rwrist -10.1896
rhand -19.7915 -12.7809
rfingers 7.12502
rthumb 6.54109 -42.6599
lclavicle -4.01452e-015 -2.66371e-014
lhumerus -46.8949 -4.24046 81.6688
lradius 26.6862
lwrist -18.6376
lhand -12.4055 7.6568
lfingers 7.12502
lthumb 13.6662 37.1881
rfemur -10.9129 3.00992 35.5053
rtibia 25.0437
rfoot 171.243 -182.957
rtoes 20.9508
lfemur -53.8164 9.62378 -9.01077
ltibia 66.5692
lfoot 361.331 184.202
ltoes -4.85577
455
root 3.53373 17.9848 4.30411 653.161 -99.7066 -653.802
lowerback 3.74223 1.60797 7.47781
upperback -0.441761 2.4761 3.64545
thorax -2.40291 1.11213 -0.554375
lowerneck -18.6615 -3.93894 -5.97126
upperneck 12.8852 -4.4695 4.09112
head 7.23124 -2.06294 1.78718
rclavicle 6.65929e-015 7.15625e-015
rhumerus 3.3895 19.9057 -85.4317
rradius 77.0406
rwrist -10.5282
rhand -19.7557 -12.7367
rfingers 7.12502
rthumb 6.57568 -42.6146
lclavicle 6.65929e-015 7.15625e-015
lhumerus -48.1642 -3.8671 80.0693
lradius 26.9554
lwrist -18.0593
lhand -12.3588 7.60038
lfingers 7.12502
lthumb 13.7112 37.1287
rfemur -9.78934 3.10697 35.7376
rtibia 24.3153
rfoot 171.266 -182.801
rtoes 20.9467
lfemur -56.6578 10.0567 -9.30501
ltibia 64.5845
lfoot 360.947 184.339
ltoes -4.82213
456
root 3.41056 18.0131 4.29961 654.661 -100.011 -655.506
lowerback 3.98481 1.82709 7.79214
upperback -0.351586 2.79981 3.54292
thorax -2.40561 1.26982 -0.856245
lowerneck -18.618 -4.03953 -6.0325
upperneck 12.8031 -4.60691 4.18848
head 7.20814 -2.12315 1.81309
rclavicle -8.00807e-015 9.34288e-015
rhumerus 5.29913 19.8793 -84.5461
rradius 77.7042
rwrist -10.8435
rhand -19.7127 -12.7099
rfingers 7.12502
rthumb 6.61719 -42.5866
lclavicle -8.00807e-015 9.34288e-015
lhumerus -49.4183 -3.56377 78.4583
lradius 27.2711
lwrist -17.5336
lhand -12.3041 7.5552
lfingers 7.12502
lthumb 13.764 37.0799
rfemur -8.72321 3.17621 35.9522
rtibia 23.6457
rfoot 171.279 -182.645
rtoes 20.9394
lfemur -59.4553 10.4146 -9.61585
ltibia 62.7768
lfoot 360.62 184.413
ltoes -4.7974
457
root 3.28546 18.0382 4.29576 656.042 -100.315 -657.067
lowerback 4.18584 2.0336 8.08147
upperback -0.289227 3.10414 3.4597
thorax -2.41291 1.41755 -1.12311
lowerneck -18.4983 -4.13341 -6.11283
upperneck 12.7096 -4.73231 4.27215
head 7.16833 -2.18096 1.84004
rclavicle -2.15875e-014 -1.63003e-014
rhumerus 7.14113 19.8496 -83.6188
rradius 78.2651
rwrist -11.1144
rhand -19.6568 -12.6974
rfingers 7.12502
rthumb 6.67116 -42.5724
lclavicle -2.15875e-014 -1.63003e-014
lhumerus -50.6868 -3.28053 76.8387
lradius 27.6131
lwrist -17.1148
lhand -12.2348 7.49276
lfingers 7.12502
lthumb 13.8307 37.0129
rfemur -7.71562 3.22713 36.154
rtibia 23.037
rfoot 171.278 -182.48
rtoes 20.9289
lfemur -62.2024 10.7101 -9.92968
ltibia 61.1463
lfoot 360.369 184.455
ltoes -4.72728
458
root 3.15815 18.0605 4.2926 657.279 -100.609 -658.461
lowerback 4.34769 2.22996 8.346
upperback -0.240224 3.39123 3.38828
thorax -2.41159 1.55714 -1.3624
lowerneck -18.3836 -4.22556 -6.2044
upperneck 12.6444 -4.85143 4.34578
head 7.13852 -2.23729 1.8662
rclavicle 2.3394e-014 -1.80894e-014
rhumerus 8.94059 19.7934 -82.6496
rradius 78.7257
rwrist -11.3306
rhand -19.581 -12.6954
rfingers 7.12502
rthumb 6.74427 -42.568
lclavicle 2.3394e-014 -1.80894e-014
lhumerus -51.928 -3.03559 75.2212
lradius 27.9655
lwrist -16.8005
lhand -12.1527 7.40708
lfingers 7.12502
lthumb 13.9099 36.9218
rfemur -6.75993 3.24812 36.3347
rtibia 22.4804
rfoot 171.267 -182.298
rtoes 20.9188
lfemur -64.8964 10.9331 -10.2467
ltibia 59.69
lfoot 360.194 184.491
ltoes -4.71375
459
root 3.02916 18.0801 4.29002 658.359 -100.889 -659.674
lowerback 4.48464 2.41384 8.5878
upperback -0.213888 3.6603 3.32572
thorax -2.42007 1.68729 -1.5788
lowerneck -18.2665 -4.3136 -6.29523
upperneck 12.6137 -4.96411 4.40424
head 7.11902 -2.29205 1.88804
rclavicle 1.37668e-014 1.96797e-014
rhumerus 10.672 19.714 -81.6607
rradius 79.0841
rwrist -11.469
rhand -19.5212 -12.6989
rfingers 7.12502
rthumb 6.80201 -42.5697
lclavicle 1.37668e-014 1.96797e-014
lhumerus -53.134 -2.82712 73.6076
lradius 28.2947
lwrist -16.5754
lhand -12.0776 7.27845
lfingers 7.12502
lthumb 13.9822 36.7882
rfemur -5.85683 3.23611 36.4951
rtibia 21.9718
rfoot 171.245 -182.105
rtoes 20.9392
lfemur -67.528 11.08 -10.5575
ltibia 58.4136
lfoot 360.097 184.534
ltoes -4.68843
460
root 2.89824 18.0975 4.28788 659.29 -101.15 -660.727
lowerback 4.59157 2.58337 8.80045
upperback -0.192804 3.9063 3.27338
thorax -2.41903 1.80667 -1.7663
lowerneck -18.1647 -4.3982 -6.38656
upperneck 12.6105 -5.06971 4.44859
head 7.11047 -2.34457 1.90595
rclavicle -1.44758e-014 -1.82882e-014
rhumerus 12.3518 19.6135 -80.6512
rradius 79.3419
rwrist -11.5278
rhand -19.4579 -12.6927
rfingers 7.12502
rthumb 6.86316 -42.5615
lclavicle -1.44758e-014 -1.82882e-014
lhumerus -54.289 -2.66158 72.021
lradius 28.6097
lwrist -16.3656
lhand -11.9864 7.12558
lfingers 7.12502
lthumb 14.0701 36.6293
rfemur -4.98748 3.19065 36.6314
rtibia 21.5015
rfoot 171.218 -181.91
rtoes 20.9563
lfemur -70.0729 11.1499 -10.8563
ltibia 57.3184
lfoot 360.082 184.589
ltoes -4.6507
461
root 2.76614 18.1127 4.28597 660.069 -101.381 -661.616
lowerback 4.67396 2.7375 8.97426
upperback -0.179348 4.12806 3.23064
thorax -2.41562 1.91454 -1.92037
lowerneck -18.0713 -4.47712 -6.47371
upperneck 12.63 -5.16665 4.47834
head 7.10988 -2.39401 1.9193
rclavicle -4.57112e-014 -4.4329e-014
rhumerus 13.9642 19.4941 -79.6319
rradius 79.5016
rwrist -11.5111
rhand -19.4259 -12.683
rfingers 7.12502
rthumb 6.89399 -42.5507
lclavicle -4.57112e-014 -4.4329e-014
lhumerus -55.3856 -2.53569 70.4762
lradius 28.8972
lwrist -16.1537
lhand -11.8612 6.98536
lfingers 7.12502
lthumb 14.1907 36.4806
rfemur -4.15163 3.11358 36.7391
rtibia 21.0634
rfoot 171.189 -181.726
rtoes 20.9566
lfemur -72.5232 11.1421 -11.1475
ltibia 56.4106
lfoot 360.144 184.651
ltoes -4.64043
462
root 2.63293 18.1262 4.284 660.712 -101.577 -662.361
lowerback 4.74466 2.87373 9.10751
upperback -0.175406 4.32379 3.19274
thorax -2.41982 2.00965 -2.04566
lowerneck -17.9881 -4.55068 -6.55655
upperneck 12.6752 -5.25667 4.50101
head 7.11879 -2.4405 1.93026
rclavicle -4.46481e-014 -7.40473e-014
rhumerus 15.4936 19.3564 -78.6237
rradius 79.5742
rwrist -11.4365
rhand -19.4125 -12.6519
rfingers 7.12502
rthumb 6.90696 -42.5193
lclavicle -4.46481e-014 -7.40473e-014
lhumerus -56.4253 -2.45131 68.9797
lradius 29.1562
lwrist -15.912
lhand -11.7022 6.82826
lfingers 7.12502
lthumb 14.344 36.3127
rfemur -3.34584 3.0149 36.8185
rtibia 20.6583
rfoot 171.158 -181.567
rtoes 20.916
lfemur -74.8597 11.0621 -11.4313
ltibia 55.6921
lfoot 360.304 184.713
ltoes -4.57316
463
root 2.49943 18.1383 4.28179 661.191 -101.731 -662.936
lowerback 4.80483 2.99018 9.19582
upperback -0.175941 4.4904 3.1597
thorax -2.42836 2.09076 -2.13957
lowerneck -17.9231 -4.62018 -6.63285
upperneck 12.7421 -5.34164 4.51815
head 7.13731 -2.48454 1.93863
rclavicle 1.83744e-014 -2.26615e-014
rhumerus 16.9374 19.1976 -77.6324
rradius 79.5734
rwrist -11.327
rhand -19.4104 -12.6121
rfingers 7.12502
rthumb 6.90901 -42.4794
lclavicle 1.83744e-014 -2.26615e-014
lhumerus -57.3987 -2.41859 67.5553
lradius 29.3914
lwrist -15.6227
lhand -11.516 6.67255
lfingers 7.12502
lthumb 14.5233 36.1442
rfemur -2.57413 2.90121 36.8707
rtibia 20.2892
rfoot 171.123 -181.446
rtoes 20.8248
lfemur -77.0722 10.9054 -11.7096
ltibia 55.1648
lfoot 360.514 184.772
ltoes -4.55937
464
root 2.36572 18.1491 4.27921 661.524 -101.84 -663.357
lowerback 4.85201 3.08944 9.23874
upperback -0.180155 4.63089 3.12905
thorax -2.43915 2.15952 -2.20444
lowerneck -17.8674 -4.68789 -6.70236
upperneck 12.8206 -5.42603 4.53622
head 7.16104 -2.52781 1.9461
rclavicle -4.92089e-014 -3.68746e-014
rhumerus 18.2839 19.0144 -76.6673
rradius 79.5134
rwrist -11.2088
rhand -19.4131 -12.5604
rfingers 7.12502
rthumb 6.90641 -42.4278
lclavicle -4.92089e-014 -3.68746e-014
lhumerus -58.3012 -2.43901 66.2126
lradius 29.6003
lwrist -15.2981
lhand -11.3316 6.53075
lfingers 7.12502
lthumb 14.7011 35.9895
rfemur -1.83711 2.78671 36.8985
rtibia 19.9592
rfoot 171.081 -181.364
rtoes 20.6668
lfemur -79.1477 10.6814 -11.9852
ltibia 54.8252
lfoot 360.775 184.826
ltoes -4.53674
